Coordinates
version=1
nRows=13
nColumns=36
inDegrees=yes

Units are S.I. units (second, meters, Newtons, ...)
If the header above contains a line with 'inDegrees', this indicates whether rotational values are in degrees (yes) or radians (no).

endheader
time	pelvis_tilt	pelvis_list	pelvis_rotation	pelvis_tx	pelvis_ty	pelvis_tz	hip_flexion_r	hip_adduction_r	hip_rotation_r	knee_angle_r	knee_angle_r_beta	ankle_angle_r	subtalar_angle_r	mtp_angle_r	hip_flexion_l	hip_adduction_l	hip_rotation_l	knee_angle_l	knee_angle_l_beta	ankle_angle_l	subtalar_angle_l	mtp_angle_l	lumbar_extension	lumbar_bending	lumbar_rotation	arm_flex_r	arm_add_r	arm_rot_r	elbow_flex_r	pro_sup_r	arm_flex_l	arm_add_l	arm_rot_l	elbow_flex_l	pro_sup_l
      0.69000000	      2.30864077	      2.73476891	     -7.03693551	      0.67424776	      0.93080032	     -0.24589216	    -17.43062505	     -3.04905505	      2.21463999	     27.40143476	      0.47824526	     -3.52135963	    -17.66652636	     -7.08936912	     21.36976176	      3.58421036	     -4.95712837	     18.09371559	      0.31579491	     -6.27537617	    -16.69851588	     -7.08936912	     -4.17976791	     -4.39094290	      5.76514412	     -2.40412837	     -5.05983240	    -14.76768518	     43.71981358	    112.20393771	    -10.29995479	     -7.46172084	    -15.81796046	     20.27763107	    104.77698189
      0.70000000	      2.54130001	      3.28846980	     -6.63005520	      0.68849088	      0.93263672	     -0.24829767	    -15.93714800	     -3.87068667	      1.47588686	     31.40362544	      0.54809666	     -6.33600865	    -17.85090552	     -7.09488077	     20.44244076	      4.61830192	     -4.51234394	     18.56132179	      0.32395618	     -5.22393023	    -16.94397175	     -7.09488077	     -4.24452221	     -5.04536647	      5.09720043	     -3.02480310	     -4.69017503	    -14.93224187	     43.21248995	    112.19118152	     -9.78491507	     -7.44551910	    -15.51708621	     20.52106309	    104.79864492
      0.71000000	      2.89264718	      3.65034421	     -6.22049394	      0.70219236	      0.93468516	     -0.25066931	    -14.38849066	     -4.46820358	      1.02574636	     35.54458724	      0.62037008	     -9.15230789	    -17.99226361	     -7.09818107	     19.31878435	      5.45324032	     -4.00482270	     18.90974875	      0.33003738	     -4.31477509	    -17.12572960	     -7.09818107	     -4.54547056	     -5.46867693	      4.35738342	     -3.46056036	     -4.40510966	    -15.11829477	     42.73038325	    112.17006562	     -9.18498367	     -7.34367811	    -15.24324574	     20.83816005	    104.84973253
      0.72000000	      2.72651496	      4.03274194	     -5.78450999	      0.71548359	      0.93600237	     -0.25283800	    -12.05198576	     -4.94275826	      0.70038945	     39.69436018	      0.69279728	    -14.72646476	    -21.22916887	     -7.12269035	     18.78019481	      6.21178941	     -3.49927768	     19.25756801	      0.33610797	     -3.07421458	    -16.91743998	     -7.12269035	     -4.28085712	     -5.88017330	      3.70301387	     -4.01578699	     -3.91251505	    -15.64355771	     41.89685355	    112.29284986	     -8.60750556	     -7.43894041	    -14.27377600	     21.21136993	    104.95766574
      0.73000000	      2.84263589	      4.47566000	     -5.45372311	      0.72840703	      0.93760652	     -0.25508422	     -9.87305881	     -5.69900357	      0.28932451	     43.91262686	      0.76641992	    -17.44162537	    -21.19518918	     -7.12770388	     17.75647958	      7.08247275	     -2.98267356	     19.21268655	      0.33532464	     -2.18239575	    -17.00654159	     -7.12770388	     -4.40471431	     -6.35445442	      3.02625440	     -4.46313400	     -3.57916993	    -15.84750101	     41.33870776	    112.28147431	     -7.93165975	     -7.37131620	    -13.96359033	     21.70303071	    105.03683698
      0.74000000	      2.90104465	      4.83547386	     -5.19279315	      0.74087375	      0.93908581	     -0.25705412	     -7.56999782	     -6.30084827	      0.13352443	     47.91683608	      0.83630656	    -19.94118398	    -21.58925014	     -7.13185503	     16.75646996	      7.80783329	     -2.51291413	     19.06605902	      0.33276551	     -1.37666706	    -17.02668656	     -7.13185503	     -4.51070843	     -6.74086968	      2.38635396	     -4.81210288	     -3.25492062	    -16.07291382	     40.73055112	    112.26822070	     -7.22490096	     -7.34429180	    -13.62522907	     22.27582457	    105.14064740
      0.75000000	      2.82618493	      5.08255575	     -5.00173770	      0.75305382	      0.94039465	     -0.25884473	     -5.10234324	     -6.75956093	      0.04459147	     51.61180917	      0.90079600	    -21.96918841	    -22.59580313	     -7.13660279	     15.85385855	      8.34012283	     -2.18964167	     18.80229158	      0.32816190	     -0.64412900	    -16.93797716	     -7.13660279	     -4.49093529	     -6.97933520	      1.83118807	     -5.14574483	     -3.00617184	    -16.34764767	     39.98190700	    112.26022905	     -6.51549333	     -7.28532117	    -13.19254181	     22.94756182	    105.27952895
      0.76000000	      2.79093479	      5.22083978	     -4.90399732	      0.76493610	      0.94182186	     -0.26030537	     -2.70875579	     -7.03215517	      0.13532704	     54.91015192	      0.95836294	    -23.04300924	    -23.75137400	     -7.14095207	     14.85109975	      8.70184691	     -1.98864123	     18.43049010	      0.32167274	      0.04130547	    -16.76250058	     -7.14095207	     -4.57000805	     -7.10011759	      1.33038377	     -5.40570962	     -2.75420973	    -16.55874118	     39.23784796	    112.26134741	     -5.72861977	     -7.21878476	    -12.74509717	     23.59365200	    105.42328734
      0.77000000	      2.80711835	      5.22105240	     -4.91502352	      0.77657575	      0.94341544	     -0.26153785	     -0.42677588	     -7.09063030	      0.36199294	     57.77862706	      1.00842728	    -23.09840510	    -24.89934122	     -7.14427970	     13.75050244	      8.87622579	     -1.83833318	     17.98458327	      0.31389019	      0.62487514	    -16.51496026	     -7.14427970	     -4.73104908	     -7.05907775	      0.88480236	     -5.60585539	     -2.59266462	    -16.71589913	     38.53412546	    112.25940931	     -4.90620732	     -7.12935826	    -12.32809542	     24.18131088	    105.55459959
      0.78000000	      2.52499563	      5.23236154	     -4.97202549	      0.78806333	      0.94462582	     -0.26260657	      2.21235331	     -7.14276577	      0.53188699	     60.34656444	      1.05324624	    -22.35438434	    -26.23377160	     -7.15281452	     13.01212606	      8.96177098	     -2.06824721	     17.55304537	      0.30635844	      1.43182843	    -15.85866474	     -7.15281452	     -4.49522404	     -7.01964532	      0.57153290	     -5.78033297	     -2.43214830	    -16.94469404	     37.42830808	    112.30940757	     -4.16514422	     -7.13019412	    -11.44319722	     24.86810139	    105.79679159
      0.79000000	      2.42913696	      5.13330116	     -5.13360819	      0.79941519	      0.94626758	     -0.26350461	      4.53452223	     -7.00266720	      0.85574269	     62.35884352	      1.08836714	    -20.79843849	    -27.26352532	     -7.15768808	     11.92919556	      8.95975882	     -2.16217766	     16.84768124	      0.29404751	      2.09345309	    -15.41153119	     -7.15768808	     -4.53987447	     -6.86221583	      0.35262426	     -5.99655564	     -2.36301839	    -17.03576454	     36.62803859	    112.32653448	     -3.24881354	     -7.03955438	    -10.89994535	     25.41410265	    105.94296484
      0.80000000	      2.21782832	      4.99937898	     -5.33150448	      0.81049228	      0.94779953	     -0.26431618	      6.98959252	     -6.75432869	      1.26644044	     64.04516301	      1.11779896	    -18.40578578	    -27.40021198	     -7.16661687	     11.05126906	      8.86830512	     -2.45708158	     16.28448001	      0.28421779	      2.87212583	    -14.55039703	     -7.16661687	     -4.44915796	     -6.65732218	      0.15011340	     -6.09225788	     -2.30935848	    -17.16386197	     35.58932115	    112.36831708	     -2.35133478	     -7.03627534	     -9.92285234	     25.95339759	    106.16199678
      0.81000000	      2.08230634	      4.69875918	     -5.53839248	      0.82161027	      0.94964183	     -0.26507815	      9.17807597	     -6.24220906	      1.67526386	     65.08901964	      1.13601770	    -16.48721535	    -27.85318790	     -7.17129511	      9.94298783	      8.64288727	     -2.58877208	     15.45719085	      0.26977887	      3.41227557	    -14.07877779	     -7.17129511	     -4.46881708	     -6.25440990	      0.00601307	     -6.32076918	     -2.32190401	    -17.24363581	     34.86467057	    112.37133435	     -1.39116110	     -6.90959792	     -9.37234141	     26.48272476	    106.29106539
